# xmcd
#
# Track frame offsets:
#	150
#	11400
#	25050
#	37274
#	47923
#	60149
#	70649
#	86323
#	97272
#	114370
#
# Disc length: 1699 seconds
#
# Revision: 0
# Processed by: cddbd v1.5.2PL0 Copyright (c) Steve Scherf et al.
# Submitted via: dBpowerAMP V4.0
#
DISCID=7406a10a
DTITLE=Rick Morgenstern - America's Gone Country
DYEAR=1988
DGENRE=Country
TTITLE0=America's Gone Country
TTITLE1=That Lady Of Mine
TTITLE2=Lovin' Lovin'
TTITLE3=Two Dollar Ride
TTITLE4=Meadow Lake Saskatchewan
TTITLE5=I'm Taking Care Of The Baby's
TTITLE6=Be My Dream Maker
TTITLE7=Country Music's Just Devine
TTITLE8=That Country Feeling
TTITLE9=Nashville's Lonely Out Tonight
EXTD=
EXTT0=
EXTT1=
EXTT2=
EXTT3=
EXTT4=
EXTT5=
EXTT6=
EXTT7=
EXTT8=
EXTT9=
PLAYORDER=
